<svg width="16" height="16" viewBox="0 0 16 16" fill="none" xmlns="http://www.w3.org/2000/svg">
<path d="M13.3091 12.5448L9.51812 8.75382C10.1064 7.99328 10.4246 7.06341 10.4246 6.08536C10.4246 4.91463 9.96773 3.81688 9.1415 2.98919C8.31527 2.1615 7.2146 1.70605 6.04533 1.70605C4.87605 1.70605 3.77538 2.16296 2.94915 2.98919C2.12146 3.81542 1.66602 4.91463 1.66602 6.08536C1.66602 7.25464 2.12292 8.35531 2.94915 9.18154C3.77538 10.0092 4.87459 10.4647 6.04533 10.4647C7.02337 10.4647 7.95179 10.1464 8.71233 9.55962L12.5033 13.3492C12.5145 13.3603 12.5277 13.3691 12.5422 13.3751C12.5567 13.3812 12.5723 13.3843 12.588 13.3843C12.6037 13.3843 12.6193 13.3812 12.6338 13.3751C12.6484 13.3691 12.6616 13.3603 12.6727 13.3492L13.3091 12.7142C13.3203 12.7031 13.3291 12.6899 13.3351 12.6753C13.3411 12.6608 13.3442 12.6452 13.3442 12.6295C13.3442 12.6138 13.3411 12.5982 13.3351 12.5837C13.3291 12.5692 13.3203 12.556 13.3091 12.5448ZM8.3576 8.39764C7.73866 9.01512 6.91827 9.35525 6.04533 9.35525C5.17238 9.35525 4.35199 9.01512 3.73305 8.39764C3.11557 7.7787 2.77544 6.95831 2.77544 6.08536C2.77544 5.21242 3.11557 4.39057 3.73305 3.77309C4.35199 3.15561 5.17238 2.81548 6.04533 2.81548C6.91827 2.81548 7.74012 3.15415 8.3576 3.77309C8.97508 4.39203 9.31521 5.21242 9.31521 6.08536C9.31521 6.95831 8.97508 7.78016 8.3576 8.39764Z" fill="white"/>
</svg>
