<svg width="21" height="19" viewBox="0 0 21 19" fill="none" xmlns="http://www.w3.org/2000/svg">
<path d="M20.6023 7.25221V16.2665C20.6023 17.3658 19.6862 18.2652 18.5665 18.2652H2.28083C1.16119 18.2652 0.245117 17.3658 0.245117 16.2665V4.2741C0.245117 3.1748 1.16119 2.27537 2.28083 2.27537H12.5612C12.5001 2.59517 12.4594 2.93495 12.4594 3.27474C12.4594 4.7538 13.121 6.06297 14.1592 6.98238L10.4237 9.27093L2.28083 4.2741V6.27283L10.4237 11.2697L15.8183 7.95177C16.368 8.15164 16.938 8.27156 17.5487 8.27156C18.6989 8.27156 19.7473 7.88181 20.6023 7.25221ZM14.4951 3.27474C14.4951 4.93368 15.859 6.27283 17.5487 6.27283C19.2383 6.27283 20.6023 4.93368 20.6023 3.27474C20.6023 1.61579 19.2383 0.276642 17.5487 0.276642C15.859 0.276642 14.4951 1.61579 14.4951 3.27474Z" fill="black"/>
</svg>
