<svg width="15" height="16" viewBox="0 0 15 16" fill="none" xmlns="http://www.w3.org/2000/svg">
<path d="M11.0017 5.95183L4.50089 2.20303L11.0017 5.95183ZM14.2521 10.7191V4.94059C14.2518 4.68726 14.185 4.43845 14.0582 4.21912C13.9314 3.99979 13.7492 3.81766 13.5298 3.691L8.4736 0.80175C8.25399 0.674958 8.00487 0.608208 7.75129 0.608208C7.49771 0.608208 7.24859 0.674958 7.02898 0.80175L1.9728 3.691C1.75341 3.81766 1.57118 3.99979 1.4444 4.21912C1.31762 4.43845 1.25075 4.68726 1.25049 4.94059V10.7191C1.25075 10.9724 1.31762 11.2212 1.4444 11.4406C1.57118 11.6599 1.75341 11.842 1.9728 11.9687L7.02898 14.8579C7.24859 14.9847 7.49771 15.0515 7.75129 15.0515C8.00487 15.0515 8.25399 14.9847 8.4736 14.8579L13.5298 11.9687C13.7492 11.842 13.9314 11.6599 14.0582 11.4406C14.185 11.2212 14.2518 10.9724 14.2521 10.7191Z" stroke="black" stroke-width="0.722311" stroke-linecap="round" stroke-linejoin="round"/>
<path d="M7.75109 15.1108V7.82986M1.44531 4.18941L7.75109 7.83708L14.0569 4.18941H1.44531Z" stroke="black" stroke-width="0.722311" stroke-linecap="round" stroke-linejoin="round"/>
</svg>
