<svg width="12" height="12" viewBox="0 0 12 12" fill="none" xmlns="http://www.w3.org/2000/svg">
<path d="M5.06428 5.26794L5.86978 4.52994C6.09003 4.32775 6.24483 4.06436 6.31432 3.77357C6.38381 3.48278 6.36482 3.17786 6.25978 2.89794L5.91628 1.98069C5.78795 1.63825 5.53389 1.35763 5.20586 1.19598C4.87783 1.03434 4.50051 1.00383 4.15078 1.11069C2.86378 1.50444 1.87453 2.70069 2.17903 4.12119C2.37928 5.05569 2.76253 6.22869 3.48853 7.47669C4.21603 8.72769 5.04703 9.65169 5.75953 10.3012C6.83503 11.2799 8.37253 11.0354 9.36178 10.1129C9.62696 9.86569 9.78786 9.52663 9.81169 9.16485C9.83552 8.80308 9.72048 8.44583 9.49003 8.16594L8.86003 7.40094C8.67002 7.1696 8.41513 7.00041 8.12817 6.91514C7.8412 6.82986 7.53529 6.83241 7.24978 6.92244L6.20878 7.25019C5.93994 6.97275 5.70435 6.66492 5.50678 6.33294C5.31608 5.99721 5.16746 5.63926 5.06428 5.26719V5.26794Z" fill="black"/>
</svg>
