<svg width="537" height="515" viewBox="0 0 537 515" fill="none" xmlns="http://www.w3.org/2000/svg">
<path d="M279 130.333C354.997 130.333 416.701 192.037 416.701 268.034C416.701 344.031 354.997 405.735 279 405.735C203.003 405.735 141.299 344.031 141.299 268.034C141.299 192.037 203.003 130.333 279 130.333Z" fill="#3B7AC3"/>
<path d="M279 130.333C354.997 130.333 416.701 192.037 416.701 268.034C416.701 344.031 354.997 405.735 279 405.735C203.003 405.735 141.299 344.031 141.299 268.034C141.299 192.037 203.003 130.333 279 130.333Z" stroke="#FFDE25" stroke-width="10"/>
<path d="M211.792 285.305C226.053 296.606 251.591 316.843 251.591 316.843C251.591 316.843 269.698 286.613 293.23 262.333C316.662 238.158 336.357 225.535 346.206 219.224" stroke="white" stroke-width="15.1" stroke-linecap="round"/>
<path d="M435.449 112.61L439.249 123.163L450.46 123.516L441.598 130.391L444.726 141.162L435.449 134.858L426.172 141.162L429.301 130.391L420.438 123.516L431.649 123.163L435.449 112.61Z" fill="#3B7AC3"/>
<path d="M165.218 73.6998L168.556 85.4268L180.74 84.9772L170.619 91.7753L174.811 103.224L165.218 95.6989L155.625 103.224L159.818 91.7753L149.696 84.9772L161.881 85.4268L165.218 73.6998Z" stroke="#3B7AC3" stroke-width="1.92"/>
<path d="M482.643 247.346C485.14 247.346 487.168 249.374 487.168 251.872C487.168 254.369 485.14 256.397 482.643 256.397C480.145 256.397 478.117 254.369 478.117 251.872C478.117 249.374 480.145 247.346 482.643 247.346Z" stroke="#3B7AC3" stroke-width="2.5"/>
<path d="M313.264 452.282C318.259 452.282 322.314 456.338 322.314 461.333C322.314 466.328 318.259 470.383 313.264 470.383C308.269 470.383 304.213 466.328 304.213 461.333C304.213 456.338 308.269 452.282 313.264 452.282Z" stroke="#3B7AC3" stroke-width="2.5"/>
<path d="M83.7615 191.879L95.9342 200.723L91.2847 215.033H76.2384L71.5889 200.723L83.7615 191.879Z" stroke="#3B7AC3" stroke-width="4"/>
<path d="M160.693 424.483C166.045 424.483 170.391 428.828 170.391 434.18C170.391 439.532 166.045 443.878 160.693 443.878C155.341 443.878 150.996 439.532 150.996 434.18C150.996 428.828 155.341 424.483 160.693 424.483Z" fill="#3B7AC3"/>
<path d="M458.966 404.669L421.088 410.668L434.832 374.866L458.966 404.669Z" fill="#3B7AC3"/>
<path d="M95.11 322.072L62.2804 337.537L72.6698 310.471L95.11 322.072Z" fill="#3B7AC3"/>
<path d="M317.362 45.0481L325.898 76.8875L297.075 81.4375L317.362 45.0481Z" fill="#3B7AC3"/>
<path d="M231.049 504.082C231.036 504.132 231.023 504.182 231.01 504.232L231.049 504.082Z" fill="#212121"/>
<path d="M231.049 504.082C231.036 504.132 231.023 504.182 231.01 504.232" stroke="white" stroke-width="3" stroke-linecap="round"/>
<path d="M531.209 345.294C531.856 345.524 532.488 345.748 533.106 345.968" stroke="white" stroke-width="3" stroke-linecap="round"/>
</svg>
