<svg width="19" height="19" viewBox="0 0 19 19" fill="none" xmlns="http://www.w3.org/2000/svg">
<g clip-path="url(#clip0_101_821)">
<path d="M9.12912 1.3205C9.90471 1.3205 10.6485 1.6286 11.197 2.17702C11.7454 2.72545 12.0535 3.46927 12.0535 4.24486V4.82973H6.20476V4.24486C6.20476 3.46927 6.51286 2.72545 7.06129 2.17702C7.60971 1.6286 8.35353 1.3205 9.12912 1.3205ZM13.2232 4.82973V4.24486C13.2232 3.15903 12.7919 2.11768 12.0241 1.34989C11.2563 0.582098 10.2149 0.150757 9.12912 0.150757C8.0433 0.150757 7.00195 0.582098 6.23415 1.34989C5.46636 2.11768 5.03502 3.15903 5.03502 4.24486V4.82973H0.940918V16.5272C0.940918 17.1476 1.1874 17.7427 1.62614 18.1814C2.06488 18.6202 2.65993 18.8666 3.2804 18.8666H14.9778C15.5983 18.8666 16.1934 18.6202 16.6321 18.1814C17.0708 17.7427 17.3173 17.1476 17.3173 16.5272V4.82973H13.2232ZM2.11066 5.99947H16.1476V16.5272C16.1476 16.8374 16.0243 17.1349 15.805 17.3543C15.5856 17.5737 15.2881 17.6969 14.9778 17.6969H3.2804C2.97017 17.6969 2.67264 17.5737 2.45327 17.3543C2.2339 17.1349 2.11066 16.8374 2.11066 16.5272V5.99947Z" fill="black"/>
</g>
<defs>
<clipPath id="clip0_101_821">
<rect width="18.7159" height="18.7159" fill="white" transform="translate(-0.228516 0.150757)"/>
</clipPath>
</defs>
</svg>
