<svg width="31" height="31" viewBox="0 0 31 31" fill="none" xmlns="http://www.w3.org/2000/svg">
<path d="M22.4822 15.7451C22.4704 13.7406 23.3786 12.2299 25.2127 11.1159C24.1869 9.64635 22.635 8.83808 20.5894 8.6823C18.6524 8.52946 16.5333 9.81094 15.7574 9.81094C14.9373 9.81094 13.0621 8.73521 11.5867 8.73521C8.54169 8.78223 5.30566 11.163 5.30566 16.0067C5.30566 17.4381 5.56725 18.9165 6.09042 20.439C6.78995 22.4435 9.31175 27.3549 11.9423 27.2755C13.3178 27.2432 14.2907 26.2997 16.0807 26.2997C17.8177 26.2997 18.7171 27.2755 20.2513 27.2755C22.9054 27.2373 25.1862 22.7727 25.8505 20.7623C22.2911 19.084 22.4822 15.848 22.4822 15.7451ZM19.3931 6.78066C20.8833 5.01128 20.7481 3.40061 20.704 2.82159C19.3872 2.89801 17.8647 3.71804 16.9977 4.72618C16.0425 5.80779 15.4811 7.14511 15.6016 8.65291C17.0241 8.76166 18.3233 8.02981 19.3931 6.78066Z" fill="#545454"/>
</svg>
